<svg width="500" height="500" viewBox="0 0 500 500" fill="none" xmlns="http://www.w3.org/2000/svg">
  <path d="M316.799 246.417C320.235 245.029 322.82 244.013 323.736 243.728C321.322 224.937 324.219 175.59 355.126 128.531C386.033 81.4726 464.588 74.6105 500.002 77.0615C497.833 235.579 400.198 269.504 364.604 281.872C360.572 283.273 357.337 284.397 355.126 285.395C349.193 288.071 309.725 304.678 292.883 311.157C248.035 328.409 176.878 355.782 145.281 375.382C110.511 396.95 82.2309 441.558 72.4375 461.166L130.793 325.382C160.166 307.722 200.332 290.431 235.542 276.96C247.099 272.538 258.122 268.528 268.055 265.052L212.079 134.804L149.705 280.883L91.3496 416.667L55.5352 500H0L212.079 0L316.799 246.417ZM424.563 500H369.027L333.214 416.667L297.198 332.866C299.014 332.167 300.793 331.483 302.533 330.813C319.375 324.335 332.507 319.283 338.44 316.606C340.188 315.818 342.575 314.951 345.489 313.931L424.563 500Z" fill="#155DFC"/>
</svg>